G04 #@! TF.FileFunction,Soldermask,Bot*
%FSLAX46Y46*%
G04 Gerber Fmt 4.6, Leading zero omitted, Abs format (unit mm)*
G04 Created by KiCad (PCBNEW 4.0.7) date 09/25/20 21:30:28*
%MOMM*%
%LPD*%
G01*
G04 APERTURE LIST*
%ADD10C,0.200000*%
%ADD11C,0.150000*%
%ADD12R,1.200000X0.900000*%
%ADD13O,1.000000X1.500000*%
%ADD14C,2.000000*%
%ADD15R,0.800000X0.900000*%
%ADD16C,2.032000*%
G04 APERTURE END LIST*
D10*
D11*
X166623000Y-115611000D02*
X166877000Y-115611000D01*
X166623000Y-117389000D02*
X166877000Y-117389000D01*
X166750000Y-115611000D02*
X166750000Y-117389000D01*
X167639000Y-116182500D02*
X167639000Y-116881000D01*
X167385000Y-117198500D02*
X167385000Y-115801500D01*
X167258000Y-115738000D02*
X167258000Y-117262000D01*
X167131000Y-117325500D02*
X167131000Y-115674500D01*
X167004000Y-115674500D02*
X167004000Y-117325500D01*
X166877000Y-117389000D02*
X166877000Y-115611000D01*
X166877000Y-115611000D02*
G75*
G02X167766000Y-116500000I0J-889000D01*
G01*
X167766000Y-116500000D02*
G75*
G02X166877000Y-117389000I-889000J0D01*
G01*
X165861000Y-116881000D02*
X165861000Y-116119000D01*
X166115000Y-115801500D02*
X166115000Y-117198500D01*
X166242000Y-117262000D02*
X166242000Y-115738000D01*
X166369000Y-115674500D02*
X166369000Y-117325500D01*
X166496000Y-117325500D02*
X166496000Y-115674500D01*
X166623000Y-117389000D02*
X166623000Y-115611000D01*
X165734000Y-116500000D02*
G75*
G02X166623000Y-115611000I889000J0D01*
G01*
X166623000Y-117389000D02*
G75*
G02X165734000Y-116500000I0J889000D01*
G01*
D12*
X172600000Y-112250000D03*
X170400000Y-112250000D03*
D13*
X272905000Y-136500000D03*
X271635000Y-136500000D03*
X270365000Y-136500000D03*
X269095000Y-136500000D03*
X254405000Y-136500000D03*
X253135000Y-136500000D03*
X251865000Y-136500000D03*
X250595000Y-136500000D03*
X235905000Y-136500000D03*
X234635000Y-136500000D03*
X233365000Y-136500000D03*
X232095000Y-136500000D03*
X217405000Y-136500000D03*
X216135000Y-136500000D03*
X214865000Y-136500000D03*
X213595000Y-136500000D03*
X272905000Y-118000000D03*
X271635000Y-118000000D03*
X270365000Y-118000000D03*
X269095000Y-118000000D03*
X254405000Y-118000000D03*
X253135000Y-118000000D03*
X251865000Y-118000000D03*
X250595000Y-118000000D03*
X235905000Y-118000000D03*
X234635000Y-118000000D03*
X233365000Y-118000000D03*
X232095000Y-118000000D03*
X217405000Y-118000000D03*
X216135000Y-118000000D03*
X214865000Y-118000000D03*
X213595000Y-118000000D03*
X272905000Y-99500000D03*
X271635000Y-99500000D03*
X270365000Y-99500000D03*
X269095000Y-99500000D03*
X254405000Y-99500000D03*
X253135000Y-99500000D03*
X251865000Y-99500000D03*
X250595000Y-99500000D03*
X235905000Y-99500000D03*
X234635000Y-99500000D03*
X233365000Y-99500000D03*
X232095000Y-99500000D03*
X217405000Y-99500000D03*
X216135000Y-99500000D03*
X214865000Y-99500000D03*
X213595000Y-99500000D03*
X69655000Y-99500000D03*
X68385000Y-99500000D03*
X67115000Y-99500000D03*
X65845000Y-99500000D03*
X88155000Y-99500000D03*
X86885000Y-99500000D03*
X85615000Y-99500000D03*
X84345000Y-99500000D03*
X106655000Y-99500000D03*
X105385000Y-99500000D03*
X104115000Y-99500000D03*
X102845000Y-99500000D03*
X125155000Y-99500000D03*
X123885000Y-99500000D03*
X122615000Y-99500000D03*
X121345000Y-99500000D03*
X69655000Y-118000000D03*
X68385000Y-118000000D03*
X67115000Y-118000000D03*
X65845000Y-118000000D03*
X88155000Y-118000000D03*
X86885000Y-118000000D03*
X85615000Y-118000000D03*
X84345000Y-118000000D03*
X106655000Y-118000000D03*
X105385000Y-118000000D03*
X104115000Y-118000000D03*
X102845000Y-118000000D03*
X125155000Y-118000000D03*
X123885000Y-118000000D03*
X122615000Y-118000000D03*
X121345000Y-118000000D03*
X69655000Y-136500000D03*
X68385000Y-136500000D03*
X67115000Y-136500000D03*
X65845000Y-136500000D03*
X88155000Y-136500000D03*
X86885000Y-136500000D03*
X85615000Y-136500000D03*
X84345000Y-136500000D03*
X106655000Y-136500000D03*
X105385000Y-136500000D03*
X104115000Y-136500000D03*
X102845000Y-136500000D03*
X125155000Y-136500000D03*
X123885000Y-136500000D03*
X122615000Y-136500000D03*
X121345000Y-136500000D03*
D10*
G36*
X166650000Y-115850000D02*
X166650000Y-117150000D01*
X165850000Y-117050000D01*
X165850000Y-115950000D01*
X166650000Y-115850000D01*
X166650000Y-115850000D01*
G37*
G36*
X166850000Y-117150000D02*
X166850000Y-115850000D01*
X167650000Y-115950000D01*
X167650000Y-117050000D01*
X166850000Y-117150000D01*
X166850000Y-117150000D01*
G37*
D14*
X77000000Y-144500000D03*
X77000000Y-91500000D03*
X261750000Y-91500000D03*
X261750000Y-144500000D03*
X143250000Y-144500000D03*
X195250000Y-144500000D03*
X143250000Y-91500000D03*
X195250000Y-91500000D03*
D15*
X165800000Y-111500000D03*
X167700000Y-111500000D03*
X166750000Y-113500000D03*
D12*
X165650000Y-108750000D03*
X167850000Y-108750000D03*
X160400000Y-112250000D03*
X162600000Y-112250000D03*
D16*
X72550000Y-94900000D03*
X67750000Y-93100000D03*
X220300000Y-94900000D03*
X215500000Y-93100000D03*
X238800000Y-94900000D03*
X234000000Y-93100000D03*
X257300000Y-94900000D03*
X252500000Y-93100000D03*
X275800000Y-94900000D03*
X271000000Y-93100000D03*
X220300000Y-113400000D03*
X215500000Y-111600000D03*
X238800000Y-113400000D03*
X234000000Y-111600000D03*
X257300000Y-113400000D03*
X252500000Y-111600000D03*
X275800000Y-113400000D03*
X271000000Y-111600000D03*
X220300000Y-131900000D03*
X215500000Y-130100000D03*
X238800000Y-131900000D03*
X234000000Y-130100000D03*
X257300000Y-131900000D03*
X252500000Y-130100000D03*
X275800000Y-131900000D03*
X271000000Y-130100000D03*
X91050000Y-94900000D03*
X86250000Y-93100000D03*
X109550000Y-94900000D03*
X104750000Y-93100000D03*
X128050000Y-94900000D03*
X123250000Y-93100000D03*
X72550000Y-113400000D03*
X67750000Y-111600000D03*
X91050000Y-113400000D03*
X86250000Y-111600000D03*
X109550000Y-113400000D03*
X104750000Y-111600000D03*
X128050000Y-113400000D03*
X123250000Y-111600000D03*
X72550000Y-131900000D03*
X67750000Y-130100000D03*
X91050000Y-131900000D03*
X86250000Y-130100000D03*
X109550000Y-131900000D03*
X104750000Y-130100000D03*
X128050000Y-131900000D03*
X123250000Y-130100000D03*
M02*
