G04 #@! TF.FileFunction,Legend,Bot*
%FSLAX46Y46*%
G04 Gerber Fmt 4.6, Leading zero omitted, Abs format (unit mm)*
G04 Created by KiCad (PCBNEW 4.0.7) date 09/25/20 21:30:28*
%MOMM*%
%LPD*%
G01*
G04 APERTURE LIST*
%ADD10C,0.200000*%
%ADD11C,0.100000*%
%ADD12C,0.300000*%
%ADD13C,0.002540*%
%ADD14C,0.120000*%
%ADD15C,0.150000*%
%ADD16R,1.200000X0.900000*%
%ADD17O,1.000000X1.500000*%
%ADD18C,2.000000*%
%ADD19R,0.800000X0.900000*%
%ADD20C,2.032000*%
G04 APERTURE END LIST*
D10*
D11*
X205500000Y-146500000D02*
X205500000Y-89500000D01*
X133250000Y-89500000D02*
X133250000Y-146500000D01*
D12*
X186107141Y-124428571D02*
X186107141Y-122928571D01*
X185249998Y-124428571D02*
X185892855Y-123571429D01*
X185249998Y-122928571D02*
X186107141Y-123785714D01*
X183964284Y-124428571D02*
X183964284Y-123642857D01*
X184035713Y-123500000D01*
X184178570Y-123428571D01*
X184464284Y-123428571D01*
X184607141Y-123500000D01*
X183964284Y-124357143D02*
X184107141Y-124428571D01*
X184464284Y-124428571D01*
X184607141Y-124357143D01*
X184678570Y-124214286D01*
X184678570Y-124071429D01*
X184607141Y-123928571D01*
X184464284Y-123857143D01*
X184107141Y-123857143D01*
X183964284Y-123785714D01*
X183249998Y-124428571D02*
X183249998Y-123428571D01*
X183249998Y-122928571D02*
X183321427Y-123000000D01*
X183249998Y-123071429D01*
X183178570Y-123000000D01*
X183249998Y-122928571D01*
X183249998Y-123071429D01*
X182321426Y-124428571D02*
X182464284Y-124357143D01*
X182535712Y-124214286D01*
X182535712Y-122928571D01*
X181749998Y-124428571D02*
X181749998Y-122928571D01*
X181107141Y-124428571D02*
X181107141Y-123642857D01*
X181178570Y-123500000D01*
X181321427Y-123428571D01*
X181535712Y-123428571D01*
X181678570Y-123500000D01*
X181749998Y-123571429D01*
X179321427Y-124357143D02*
X179107141Y-124428571D01*
X178749998Y-124428571D01*
X178607141Y-124357143D01*
X178535712Y-124285714D01*
X178464284Y-124142857D01*
X178464284Y-124000000D01*
X178535712Y-123857143D01*
X178607141Y-123785714D01*
X178749998Y-123714286D01*
X179035712Y-123642857D01*
X179178570Y-123571429D01*
X179249998Y-123500000D01*
X179321427Y-123357143D01*
X179321427Y-123214286D01*
X179249998Y-123071429D01*
X179178570Y-123000000D01*
X179035712Y-122928571D01*
X178678570Y-122928571D01*
X178464284Y-123000000D01*
X177178570Y-123428571D02*
X177178570Y-124428571D01*
X177821427Y-123428571D02*
X177821427Y-124214286D01*
X177749999Y-124357143D01*
X177607141Y-124428571D01*
X177392856Y-124428571D01*
X177249999Y-124357143D01*
X177178570Y-124285714D01*
X176464284Y-123428571D02*
X176464284Y-124428571D01*
X176464284Y-123571429D02*
X176392856Y-123500000D01*
X176249998Y-123428571D01*
X176035713Y-123428571D01*
X175892856Y-123500000D01*
X175821427Y-123642857D01*
X175821427Y-124428571D01*
X174178570Y-122928571D02*
X173678570Y-124428571D01*
X173178570Y-122928571D01*
X171892856Y-124428571D02*
X172749999Y-124428571D01*
X172321427Y-124428571D02*
X172321427Y-122928571D01*
X172464284Y-123142857D01*
X172607142Y-123285714D01*
X172749999Y-123357143D01*
X171249999Y-124285714D02*
X171178571Y-124357143D01*
X171249999Y-124428571D01*
X171321428Y-124357143D01*
X171249999Y-124285714D01*
X171249999Y-124428571D01*
X169749999Y-124428571D02*
X170607142Y-124428571D01*
X170178570Y-124428571D02*
X170178570Y-122928571D01*
X170321427Y-123142857D01*
X170464285Y-123285714D01*
X170607142Y-123357143D01*
X165750000Y-123071429D02*
X165678571Y-123000000D01*
X165535714Y-122928571D01*
X165178571Y-122928571D01*
X165035714Y-123000000D01*
X164964285Y-123071429D01*
X164892857Y-123214286D01*
X164892857Y-123357143D01*
X164964285Y-123571429D01*
X165821428Y-124428571D01*
X164892857Y-124428571D01*
X163964286Y-122928571D02*
X163821429Y-122928571D01*
X163678572Y-123000000D01*
X163607143Y-123071429D01*
X163535714Y-123214286D01*
X163464286Y-123500000D01*
X163464286Y-123857143D01*
X163535714Y-124142857D01*
X163607143Y-124285714D01*
X163678572Y-124357143D01*
X163821429Y-124428571D01*
X163964286Y-124428571D01*
X164107143Y-124357143D01*
X164178572Y-124285714D01*
X164250000Y-124142857D01*
X164321429Y-123857143D01*
X164321429Y-123500000D01*
X164250000Y-123214286D01*
X164178572Y-123071429D01*
X164107143Y-123000000D01*
X163964286Y-122928571D01*
X162892858Y-123071429D02*
X162821429Y-123000000D01*
X162678572Y-122928571D01*
X162321429Y-122928571D01*
X162178572Y-123000000D01*
X162107143Y-123071429D01*
X162035715Y-123214286D01*
X162035715Y-123357143D01*
X162107143Y-123571429D01*
X162964286Y-124428571D01*
X162035715Y-124428571D01*
X161107144Y-122928571D02*
X160964287Y-122928571D01*
X160821430Y-123000000D01*
X160750001Y-123071429D01*
X160678572Y-123214286D01*
X160607144Y-123500000D01*
X160607144Y-123857143D01*
X160678572Y-124142857D01*
X160750001Y-124285714D01*
X160821430Y-124357143D01*
X160964287Y-124428571D01*
X161107144Y-124428571D01*
X161250001Y-124357143D01*
X161321430Y-124285714D01*
X161392858Y-124142857D01*
X161464287Y-123857143D01*
X161464287Y-123500000D01*
X161392858Y-123214286D01*
X161321430Y-123071429D01*
X161250001Y-123000000D01*
X161107144Y-122928571D01*
X158892859Y-122857143D02*
X160178573Y-124785714D01*
X158107144Y-122928571D02*
X157964287Y-122928571D01*
X157821430Y-123000000D01*
X157750001Y-123071429D01*
X157678572Y-123214286D01*
X157607144Y-123500000D01*
X157607144Y-123857143D01*
X157678572Y-124142857D01*
X157750001Y-124285714D01*
X157821430Y-124357143D01*
X157964287Y-124428571D01*
X158107144Y-124428571D01*
X158250001Y-124357143D01*
X158321430Y-124285714D01*
X158392858Y-124142857D01*
X158464287Y-123857143D01*
X158464287Y-123500000D01*
X158392858Y-123214286D01*
X158321430Y-123071429D01*
X158250001Y-123000000D01*
X158107144Y-122928571D01*
X156892859Y-124428571D02*
X156607144Y-124428571D01*
X156464287Y-124357143D01*
X156392859Y-124285714D01*
X156250001Y-124071429D01*
X156178573Y-123785714D01*
X156178573Y-123214286D01*
X156250001Y-123071429D01*
X156321430Y-123000000D01*
X156464287Y-122928571D01*
X156750001Y-122928571D01*
X156892859Y-123000000D01*
X156964287Y-123071429D01*
X157035716Y-123214286D01*
X157035716Y-123571429D01*
X156964287Y-123714286D01*
X156892859Y-123785714D01*
X156750001Y-123857143D01*
X156464287Y-123857143D01*
X156321430Y-123785714D01*
X156250001Y-123714286D01*
X156178573Y-123571429D01*
X189285713Y-119464286D02*
X189357141Y-119392857D01*
X189499998Y-119321429D01*
X189642856Y-119321429D01*
X189785713Y-119392857D01*
X189857141Y-119464286D01*
X189928570Y-119607143D01*
X189928570Y-119750000D01*
X189857141Y-119892857D01*
X189785713Y-119964286D01*
X189642856Y-120035714D01*
X189499998Y-120035714D01*
X189357141Y-119964286D01*
X189285713Y-119892857D01*
X189285713Y-119321429D02*
X189285713Y-119892857D01*
X189214284Y-119964286D01*
X189142856Y-119964286D01*
X188999998Y-119892857D01*
X188928570Y-119750000D01*
X188928570Y-119392857D01*
X189071427Y-119178571D01*
X189285713Y-119035714D01*
X189571427Y-118964286D01*
X189857141Y-119035714D01*
X190071427Y-119178571D01*
X190214284Y-119392857D01*
X190285713Y-119678571D01*
X190214284Y-119964286D01*
X190071427Y-120178571D01*
X189857141Y-120321429D01*
X189571427Y-120392857D01*
X189285713Y-120321429D01*
X189071427Y-120178571D01*
X187642856Y-120107143D02*
X187785713Y-120178571D01*
X188071427Y-120178571D01*
X188214285Y-120107143D01*
X188285713Y-120035714D01*
X188357142Y-119892857D01*
X188357142Y-119464286D01*
X188285713Y-119321429D01*
X188214285Y-119250000D01*
X188071427Y-119178571D01*
X187785713Y-119178571D01*
X187642856Y-119250000D01*
X186357142Y-120178571D02*
X186357142Y-119392857D01*
X186428571Y-119250000D01*
X186571428Y-119178571D01*
X186857142Y-119178571D01*
X186999999Y-119250000D01*
X186357142Y-120107143D02*
X186499999Y-120178571D01*
X186857142Y-120178571D01*
X186999999Y-120107143D01*
X187071428Y-119964286D01*
X187071428Y-119821429D01*
X186999999Y-119678571D01*
X186857142Y-119607143D01*
X186499999Y-119607143D01*
X186357142Y-119535714D01*
X185642856Y-120178571D02*
X185642856Y-119178571D01*
X185642856Y-119464286D02*
X185571428Y-119321429D01*
X185499999Y-119250000D01*
X185357142Y-119178571D01*
X185214285Y-119178571D01*
X184071428Y-120107143D02*
X184214285Y-120178571D01*
X184499999Y-120178571D01*
X184642857Y-120107143D01*
X184714285Y-120035714D01*
X184785714Y-119892857D01*
X184785714Y-119464286D01*
X184714285Y-119321429D01*
X184642857Y-119250000D01*
X184499999Y-119178571D01*
X184214285Y-119178571D01*
X184071428Y-119250000D01*
X183214285Y-120178571D02*
X183357143Y-120107143D01*
X183428571Y-120035714D01*
X183500000Y-119892857D01*
X183500000Y-119464286D01*
X183428571Y-119321429D01*
X183357143Y-119250000D01*
X183214285Y-119178571D01*
X183000000Y-119178571D01*
X182857143Y-119250000D01*
X182785714Y-119321429D01*
X182714285Y-119464286D01*
X182714285Y-119892857D01*
X182785714Y-120035714D01*
X182857143Y-120107143D01*
X183000000Y-120178571D01*
X183214285Y-120178571D01*
X182071428Y-119178571D02*
X182071428Y-120178571D01*
X182071428Y-119321429D02*
X182000000Y-119250000D01*
X181857142Y-119178571D01*
X181642857Y-119178571D01*
X181500000Y-119250000D01*
X181428571Y-119392857D01*
X181428571Y-120178571D01*
X180642857Y-120178571D02*
X180357142Y-120178571D01*
X180214285Y-120107143D01*
X180142857Y-120035714D01*
X179999999Y-119821429D01*
X179928571Y-119535714D01*
X179928571Y-118964286D01*
X179999999Y-118821429D01*
X180071428Y-118750000D01*
X180214285Y-118678571D01*
X180499999Y-118678571D01*
X180642857Y-118750000D01*
X180714285Y-118821429D01*
X180785714Y-118964286D01*
X180785714Y-119321429D01*
X180714285Y-119464286D01*
X180642857Y-119535714D01*
X180499999Y-119607143D01*
X180214285Y-119607143D01*
X180071428Y-119535714D01*
X179999999Y-119464286D01*
X179928571Y-119321429D01*
X179214286Y-120178571D02*
X178928571Y-120178571D01*
X178785714Y-120107143D01*
X178714286Y-120035714D01*
X178571428Y-119821429D01*
X178500000Y-119535714D01*
X178500000Y-118964286D01*
X178571428Y-118821429D01*
X178642857Y-118750000D01*
X178785714Y-118678571D01*
X179071428Y-118678571D01*
X179214286Y-118750000D01*
X179285714Y-118821429D01*
X179357143Y-118964286D01*
X179357143Y-119321429D01*
X179285714Y-119464286D01*
X179214286Y-119535714D01*
X179071428Y-119607143D01*
X178785714Y-119607143D01*
X178642857Y-119535714D01*
X178571428Y-119464286D01*
X178500000Y-119321429D01*
X177785715Y-120178571D02*
X177500000Y-120178571D01*
X177357143Y-120107143D01*
X177285715Y-120035714D01*
X177142857Y-119821429D01*
X177071429Y-119535714D01*
X177071429Y-118964286D01*
X177142857Y-118821429D01*
X177214286Y-118750000D01*
X177357143Y-118678571D01*
X177642857Y-118678571D01*
X177785715Y-118750000D01*
X177857143Y-118821429D01*
X177928572Y-118964286D01*
X177928572Y-119321429D01*
X177857143Y-119464286D01*
X177785715Y-119535714D01*
X177642857Y-119607143D01*
X177357143Y-119607143D01*
X177214286Y-119535714D01*
X177142857Y-119464286D01*
X177071429Y-119321429D01*
X175428572Y-118678571D02*
X175071429Y-120178571D01*
X174785715Y-119107143D01*
X174500001Y-120178571D01*
X174142858Y-118678571D01*
X173571429Y-120178571D02*
X173571429Y-119178571D01*
X173571429Y-118678571D02*
X173642858Y-118750000D01*
X173571429Y-118821429D01*
X173500001Y-118750000D01*
X173571429Y-118678571D01*
X173571429Y-118821429D01*
X172642857Y-120178571D02*
X172785715Y-120107143D01*
X172857143Y-120035714D01*
X172928572Y-119892857D01*
X172928572Y-119464286D01*
X172857143Y-119321429D01*
X172785715Y-119250000D01*
X172642857Y-119178571D01*
X172428572Y-119178571D01*
X172285715Y-119250000D01*
X172214286Y-119321429D01*
X172142857Y-119464286D01*
X172142857Y-119892857D01*
X172214286Y-120035714D01*
X172285715Y-120107143D01*
X172428572Y-120178571D01*
X172642857Y-120178571D01*
X171714286Y-118678571D02*
X170857143Y-118678571D01*
X171285714Y-120178571D02*
X171285714Y-118678571D01*
X169785715Y-120107143D02*
X169928572Y-120178571D01*
X170214286Y-120178571D01*
X170357143Y-120107143D01*
X170428572Y-119964286D01*
X170428572Y-119392857D01*
X170357143Y-119250000D01*
X170214286Y-119178571D01*
X169928572Y-119178571D01*
X169785715Y-119250000D01*
X169714286Y-119392857D01*
X169714286Y-119535714D01*
X170428572Y-119678571D01*
X169071429Y-120178571D02*
X169071429Y-119178571D01*
X169071429Y-119464286D02*
X169000001Y-119321429D01*
X168928572Y-119250000D01*
X168785715Y-119178571D01*
X168642858Y-119178571D01*
X168142858Y-120178571D02*
X168142858Y-119178571D01*
X168142858Y-119321429D02*
X168071430Y-119250000D01*
X167928572Y-119178571D01*
X167714287Y-119178571D01*
X167571430Y-119250000D01*
X167500001Y-119392857D01*
X167500001Y-120178571D01*
X167500001Y-119392857D02*
X167428572Y-119250000D01*
X167285715Y-119178571D01*
X167071430Y-119178571D01*
X166928572Y-119250000D01*
X166857144Y-119392857D01*
X166857144Y-120178571D01*
X166142858Y-120178571D02*
X166142858Y-119178571D01*
X166142858Y-118678571D02*
X166214287Y-118750000D01*
X166142858Y-118821429D01*
X166071430Y-118750000D01*
X166142858Y-118678571D01*
X166142858Y-118821429D01*
X165428572Y-119178571D02*
X165428572Y-120178571D01*
X165428572Y-119321429D02*
X165357144Y-119250000D01*
X165214286Y-119178571D01*
X165000001Y-119178571D01*
X164857144Y-119250000D01*
X164785715Y-119392857D01*
X164785715Y-120178571D01*
X163428572Y-120178571D02*
X163428572Y-119392857D01*
X163500001Y-119250000D01*
X163642858Y-119178571D01*
X163928572Y-119178571D01*
X164071429Y-119250000D01*
X163428572Y-120107143D02*
X163571429Y-120178571D01*
X163928572Y-120178571D01*
X164071429Y-120107143D01*
X164142858Y-119964286D01*
X164142858Y-119821429D01*
X164071429Y-119678571D01*
X163928572Y-119607143D01*
X163571429Y-119607143D01*
X163428572Y-119535714D01*
X162500000Y-120178571D02*
X162642858Y-120107143D01*
X162714286Y-119964286D01*
X162714286Y-118678571D01*
X160857144Y-118821429D02*
X160785715Y-118750000D01*
X160642858Y-118678571D01*
X160285715Y-118678571D01*
X160142858Y-118750000D01*
X160071429Y-118821429D01*
X160000001Y-118964286D01*
X160000001Y-119107143D01*
X160071429Y-119321429D01*
X160928572Y-120178571D01*
X160000001Y-120178571D01*
X158714287Y-119178571D02*
X158714287Y-120178571D01*
X159071430Y-118607143D02*
X159428573Y-119678571D01*
X158500001Y-119678571D01*
X156857145Y-120107143D02*
X156642859Y-120178571D01*
X156285716Y-120178571D01*
X156142859Y-120107143D01*
X156071430Y-120035714D01*
X156000002Y-119892857D01*
X156000002Y-119750000D01*
X156071430Y-119607143D01*
X156142859Y-119535714D01*
X156285716Y-119464286D01*
X156571430Y-119392857D01*
X156714288Y-119321429D01*
X156785716Y-119250000D01*
X156857145Y-119107143D01*
X156857145Y-118964286D01*
X156785716Y-118821429D01*
X156714288Y-118750000D01*
X156571430Y-118678571D01*
X156214288Y-118678571D01*
X156000002Y-118750000D01*
X155500002Y-119178571D02*
X155214288Y-120178571D01*
X154928574Y-119464286D01*
X154642859Y-120178571D01*
X154357145Y-119178571D01*
X153785716Y-120178571D02*
X153785716Y-119178571D01*
X153785716Y-118678571D02*
X153857145Y-118750000D01*
X153785716Y-118821429D01*
X153714288Y-118750000D01*
X153785716Y-118678571D01*
X153785716Y-118821429D01*
X153285716Y-119178571D02*
X152714287Y-119178571D01*
X153071430Y-118678571D02*
X153071430Y-119964286D01*
X153000002Y-120107143D01*
X152857144Y-120178571D01*
X152714287Y-120178571D01*
X151571430Y-120107143D02*
X151714287Y-120178571D01*
X152000001Y-120178571D01*
X152142859Y-120107143D01*
X152214287Y-120035714D01*
X152285716Y-119892857D01*
X152285716Y-119464286D01*
X152214287Y-119321429D01*
X152142859Y-119250000D01*
X152000001Y-119178571D01*
X151714287Y-119178571D01*
X151571430Y-119250000D01*
X150928573Y-120178571D02*
X150928573Y-118678571D01*
X150285716Y-120178571D02*
X150285716Y-119392857D01*
X150357145Y-119250000D01*
X150500002Y-119178571D01*
X150714287Y-119178571D01*
X150857145Y-119250000D01*
X150928573Y-119321429D01*
D13*
G36*
X197513140Y-118985520D02*
X197502980Y-119270000D01*
X197431860Y-119584960D01*
X197424240Y-119612900D01*
X197208340Y-120153920D01*
X196911160Y-120623820D01*
X196553020Y-120999740D01*
X196156780Y-121258820D01*
X195745300Y-121380740D01*
X195636080Y-121385820D01*
X195379540Y-121355340D01*
X195039180Y-121279140D01*
X194706440Y-121177540D01*
X194104460Y-120908300D01*
X193657420Y-120580640D01*
X193367860Y-120197100D01*
X193367860Y-120194560D01*
X193268800Y-119889760D01*
X193223080Y-119501140D01*
X193228160Y-119094740D01*
X193286580Y-118744220D01*
X193345000Y-118596900D01*
X193553280Y-118353060D01*
X193886020Y-118147320D01*
X194300040Y-117982220D01*
X194752160Y-117875540D01*
X195199200Y-117832360D01*
X195595440Y-117862840D01*
X195900240Y-117982220D01*
X195912940Y-117989840D01*
X196161860Y-118243840D01*
X196380300Y-118604520D01*
X196537780Y-119008380D01*
X196603820Y-119389380D01*
X196606360Y-119422400D01*
X196580960Y-119694180D01*
X196481900Y-119899920D01*
X196324420Y-120075180D01*
X195963740Y-120336800D01*
X195547180Y-120479040D01*
X195120460Y-120499360D01*
X194726760Y-120392680D01*
X194536260Y-120275840D01*
X194361000Y-120067560D01*
X194206060Y-119770380D01*
X194101920Y-119455420D01*
X194079060Y-119191260D01*
X194079060Y-119183640D01*
X194185740Y-118965200D01*
X194406720Y-118784860D01*
X194691200Y-118657860D01*
X194988380Y-118604520D01*
X195247460Y-118642620D01*
X195364300Y-118718820D01*
X195521780Y-118812800D01*
X195633540Y-118815340D01*
X195758000Y-118850900D01*
X195900240Y-119051560D01*
X195928180Y-119102360D01*
X196098360Y-119435100D01*
X195793560Y-119590040D01*
X195793560Y-119336040D01*
X195760540Y-119191260D01*
X195758000Y-119183640D01*
X195669100Y-119074420D01*
X195539560Y-119084580D01*
X195460820Y-119117600D01*
X195285560Y-119247140D01*
X195257620Y-119394460D01*
X195305880Y-119468120D01*
X195440500Y-119521460D01*
X195646240Y-119452880D01*
X195679260Y-119435100D01*
X195793560Y-119336040D01*
X195793560Y-119590040D01*
X195684340Y-119645920D01*
X195272860Y-119854200D01*
X195120460Y-119518920D01*
X195031560Y-119305560D01*
X195013780Y-119188720D01*
X195072200Y-119107440D01*
X195130620Y-119061720D01*
X195237300Y-118937260D01*
X195204280Y-118853440D01*
X195059500Y-118812800D01*
X194835980Y-118843280D01*
X194592140Y-118934720D01*
X194396560Y-119064260D01*
X194371160Y-119092200D01*
X194287340Y-119203960D01*
X194272100Y-119318260D01*
X194327980Y-119501140D01*
X194368620Y-119600200D01*
X194505780Y-119861820D01*
X194675960Y-120077720D01*
X194721680Y-120118360D01*
X195026480Y-120260600D01*
X195389700Y-120283460D01*
X195758000Y-120199640D01*
X196083120Y-120019300D01*
X196291400Y-119785620D01*
X196398080Y-119562100D01*
X196423480Y-119351280D01*
X196362520Y-119102360D01*
X196232980Y-118797560D01*
X195984060Y-118383540D01*
X195689420Y-118116840D01*
X195366840Y-118005080D01*
X195303340Y-118002540D01*
X194968060Y-118038100D01*
X194561660Y-118132080D01*
X194160340Y-118264160D01*
X193911420Y-118373380D01*
X193632020Y-118607060D01*
X193456760Y-118942340D01*
X193393260Y-119346200D01*
X193449140Y-119783080D01*
X193578680Y-120120900D01*
X193713300Y-120346960D01*
X193886020Y-120519680D01*
X194142560Y-120682240D01*
X194320360Y-120773680D01*
X194871540Y-121007360D01*
X195377000Y-121136900D01*
X195806260Y-121154680D01*
X195961200Y-121124200D01*
X196306640Y-120951480D01*
X196631760Y-120644140D01*
X196913700Y-120240280D01*
X197127060Y-119778000D01*
X197251520Y-119292860D01*
X197266760Y-119135380D01*
X197274380Y-118845820D01*
X197243900Y-118586740D01*
X197165160Y-118302260D01*
X197022920Y-117926340D01*
X197015300Y-117906020D01*
X196842580Y-117517400D01*
X196613980Y-117057660D01*
X196370140Y-116597920D01*
X196240600Y-116369320D01*
X196022160Y-116008640D01*
X195867220Y-115774960D01*
X195752920Y-115640340D01*
X195658940Y-115587000D01*
X195567500Y-115589540D01*
X195562420Y-115592080D01*
X195422720Y-115594620D01*
X195313500Y-115495560D01*
X195222060Y-115327920D01*
X195135700Y-115129800D01*
X195097600Y-115007880D01*
X195097600Y-114995180D01*
X195181420Y-114946920D01*
X195366840Y-114850400D01*
X195481140Y-114791980D01*
X195839280Y-114611640D01*
X196009460Y-114946920D01*
X196108520Y-115160280D01*
X196128840Y-115277120D01*
X196070420Y-115343160D01*
X196050100Y-115355860D01*
X195996760Y-115414280D01*
X196006920Y-115515880D01*
X196085660Y-115691140D01*
X196250760Y-115975620D01*
X196276160Y-116016260D01*
X196611440Y-116600460D01*
X196913700Y-117192280D01*
X197167700Y-117751080D01*
X197358200Y-118246380D01*
X197464880Y-118637540D01*
X197513140Y-118985520D01*
X197513140Y-118985520D01*
X197513140Y-118985520D01*
G37*
X197513140Y-118985520D02*
X197502980Y-119270000D01*
X197431860Y-119584960D01*
X197424240Y-119612900D01*
X197208340Y-120153920D01*
X196911160Y-120623820D01*
X196553020Y-120999740D01*
X196156780Y-121258820D01*
X195745300Y-121380740D01*
X195636080Y-121385820D01*
X195379540Y-121355340D01*
X195039180Y-121279140D01*
X194706440Y-121177540D01*
X194104460Y-120908300D01*
X193657420Y-120580640D01*
X193367860Y-120197100D01*
X193367860Y-120194560D01*
X193268800Y-119889760D01*
X193223080Y-119501140D01*
X193228160Y-119094740D01*
X193286580Y-118744220D01*
X193345000Y-118596900D01*
X193553280Y-118353060D01*
X193886020Y-118147320D01*
X194300040Y-117982220D01*
X194752160Y-117875540D01*
X195199200Y-117832360D01*
X195595440Y-117862840D01*
X195900240Y-117982220D01*
X195912940Y-117989840D01*
X196161860Y-118243840D01*
X196380300Y-118604520D01*
X196537780Y-119008380D01*
X196603820Y-119389380D01*
X196606360Y-119422400D01*
X196580960Y-119694180D01*
X196481900Y-119899920D01*
X196324420Y-120075180D01*
X195963740Y-120336800D01*
X195547180Y-120479040D01*
X195120460Y-120499360D01*
X194726760Y-120392680D01*
X194536260Y-120275840D01*
X194361000Y-120067560D01*
X194206060Y-119770380D01*
X194101920Y-119455420D01*
X194079060Y-119191260D01*
X194079060Y-119183640D01*
X194185740Y-118965200D01*
X194406720Y-118784860D01*
X194691200Y-118657860D01*
X194988380Y-118604520D01*
X195247460Y-118642620D01*
X195364300Y-118718820D01*
X195521780Y-118812800D01*
X195633540Y-118815340D01*
X195758000Y-118850900D01*
X195900240Y-119051560D01*
X195928180Y-119102360D01*
X196098360Y-119435100D01*
X195793560Y-119590040D01*
X195793560Y-119336040D01*
X195760540Y-119191260D01*
X195758000Y-119183640D01*
X195669100Y-119074420D01*
X195539560Y-119084580D01*
X195460820Y-119117600D01*
X195285560Y-119247140D01*
X195257620Y-119394460D01*
X195305880Y-119468120D01*
X195440500Y-119521460D01*
X195646240Y-119452880D01*
X195679260Y-119435100D01*
X195793560Y-119336040D01*
X195793560Y-119590040D01*
X195684340Y-119645920D01*
X195272860Y-119854200D01*
X195120460Y-119518920D01*
X195031560Y-119305560D01*
X195013780Y-119188720D01*
X195072200Y-119107440D01*
X195130620Y-119061720D01*
X195237300Y-118937260D01*
X195204280Y-118853440D01*
X195059500Y-118812800D01*
X194835980Y-118843280D01*
X194592140Y-118934720D01*
X194396560Y-119064260D01*
X194371160Y-119092200D01*
X194287340Y-119203960D01*
X194272100Y-119318260D01*
X194327980Y-119501140D01*
X194368620Y-119600200D01*
X194505780Y-119861820D01*
X194675960Y-120077720D01*
X194721680Y-120118360D01*
X195026480Y-120260600D01*
X195389700Y-120283460D01*
X195758000Y-120199640D01*
X196083120Y-120019300D01*
X196291400Y-119785620D01*
X196398080Y-119562100D01*
X196423480Y-119351280D01*
X196362520Y-119102360D01*
X196232980Y-118797560D01*
X195984060Y-118383540D01*
X195689420Y-118116840D01*
X195366840Y-118005080D01*
X195303340Y-118002540D01*
X194968060Y-118038100D01*
X194561660Y-118132080D01*
X194160340Y-118264160D01*
X193911420Y-118373380D01*
X193632020Y-118607060D01*
X193456760Y-118942340D01*
X193393260Y-119346200D01*
X193449140Y-119783080D01*
X193578680Y-120120900D01*
X193713300Y-120346960D01*
X193886020Y-120519680D01*
X194142560Y-120682240D01*
X194320360Y-120773680D01*
X194871540Y-121007360D01*
X195377000Y-121136900D01*
X195806260Y-121154680D01*
X195961200Y-121124200D01*
X196306640Y-120951480D01*
X196631760Y-120644140D01*
X196913700Y-120240280D01*
X197127060Y-119778000D01*
X197251520Y-119292860D01*
X197266760Y-119135380D01*
X197274380Y-118845820D01*
X197243900Y-118586740D01*
X197165160Y-118302260D01*
X197022920Y-117926340D01*
X197015300Y-117906020D01*
X196842580Y-117517400D01*
X196613980Y-117057660D01*
X196370140Y-116597920D01*
X196240600Y-116369320D01*
X196022160Y-116008640D01*
X195867220Y-115774960D01*
X195752920Y-115640340D01*
X195658940Y-115587000D01*
X195567500Y-115589540D01*
X195562420Y-115592080D01*
X195422720Y-115594620D01*
X195313500Y-115495560D01*
X195222060Y-115327920D01*
X195135700Y-115129800D01*
X195097600Y-115007880D01*
X195097600Y-114995180D01*
X195181420Y-114946920D01*
X195366840Y-114850400D01*
X195481140Y-114791980D01*
X195839280Y-114611640D01*
X196009460Y-114946920D01*
X196108520Y-115160280D01*
X196128840Y-115277120D01*
X196070420Y-115343160D01*
X196050100Y-115355860D01*
X195996760Y-115414280D01*
X196006920Y-115515880D01*
X196085660Y-115691140D01*
X196250760Y-115975620D01*
X196276160Y-116016260D01*
X196611440Y-116600460D01*
X196913700Y-117192280D01*
X197167700Y-117751080D01*
X197358200Y-118246380D01*
X197464880Y-118637540D01*
X197513140Y-118985520D01*
X197513140Y-118985520D01*
D14*
X171000000Y-112930000D02*
X172000000Y-112930000D01*
X172000000Y-111570000D02*
X171000000Y-111570000D01*
X168330000Y-113260000D02*
X167400000Y-113260000D01*
X165170000Y-113260000D02*
X166100000Y-113260000D01*
X165170000Y-113260000D02*
X165170000Y-111100000D01*
X168330000Y-113260000D02*
X168330000Y-111800000D01*
X167250000Y-108070000D02*
X166250000Y-108070000D01*
X166250000Y-109430000D02*
X167250000Y-109430000D01*
X162000000Y-111570000D02*
X161000000Y-111570000D01*
X161000000Y-112930000D02*
X162000000Y-112930000D01*
D15*
X171699999Y-114542857D02*
X172099999Y-113971429D01*
X172385714Y-114542857D02*
X172385714Y-113342857D01*
X171928571Y-113342857D01*
X171814285Y-113400000D01*
X171757142Y-113457143D01*
X171699999Y-113571429D01*
X171699999Y-113742857D01*
X171757142Y-113857143D01*
X171814285Y-113914286D01*
X171928571Y-113971429D01*
X172385714Y-113971429D01*
X170557142Y-114542857D02*
X171242857Y-114542857D01*
X170899999Y-114542857D02*
X170899999Y-113342857D01*
X171014285Y-113514286D01*
X171128571Y-113628571D01*
X171242857Y-113685714D01*
X165385714Y-118042857D02*
X165385714Y-116842857D01*
X164928571Y-116842857D01*
X164814285Y-116900000D01*
X164757142Y-116957143D01*
X164699999Y-117071429D01*
X164699999Y-117242857D01*
X164757142Y-117357143D01*
X164814285Y-117414286D01*
X164928571Y-117471429D01*
X165385714Y-117471429D01*
X163557142Y-118042857D02*
X164242857Y-118042857D01*
X163899999Y-118042857D02*
X163899999Y-116842857D01*
X164014285Y-117014286D01*
X164128571Y-117128571D01*
X164242857Y-117185714D01*
X166845238Y-115297619D02*
X166940476Y-115250000D01*
X167035714Y-115154762D01*
X167178571Y-115011905D01*
X167273810Y-114964286D01*
X167369048Y-114964286D01*
X167321429Y-115202381D02*
X167416667Y-115154762D01*
X167511905Y-115059524D01*
X167559524Y-114869048D01*
X167559524Y-114535714D01*
X167511905Y-114345238D01*
X167416667Y-114250000D01*
X167321429Y-114202381D01*
X167130952Y-114202381D01*
X167035714Y-114250000D01*
X166940476Y-114345238D01*
X166892857Y-114535714D01*
X166892857Y-114869048D01*
X166940476Y-115059524D01*
X167035714Y-115154762D01*
X167130952Y-115202381D01*
X167321429Y-115202381D01*
X165940476Y-115202381D02*
X166511905Y-115202381D01*
X166226191Y-115202381D02*
X166226191Y-114202381D01*
X166321429Y-114345238D01*
X166416667Y-114440476D01*
X166511905Y-114488095D01*
X166916666Y-110652381D02*
X167250000Y-110176190D01*
X167488095Y-110652381D02*
X167488095Y-109652381D01*
X167107142Y-109652381D01*
X167011904Y-109700000D01*
X166964285Y-109747619D01*
X166916666Y-109842857D01*
X166916666Y-109985714D01*
X166964285Y-110080952D01*
X167011904Y-110128571D01*
X167107142Y-110176190D01*
X167488095Y-110176190D01*
X166535714Y-109747619D02*
X166488095Y-109700000D01*
X166392857Y-109652381D01*
X166154761Y-109652381D01*
X166059523Y-109700000D01*
X166011904Y-109747619D01*
X165964285Y-109842857D01*
X165964285Y-109938095D01*
X166011904Y-110080952D01*
X166583333Y-110652381D01*
X165964285Y-110652381D01*
X161666666Y-114202381D02*
X162000000Y-113726190D01*
X162238095Y-114202381D02*
X162238095Y-113202381D01*
X161857142Y-113202381D01*
X161761904Y-113250000D01*
X161714285Y-113297619D01*
X161666666Y-113392857D01*
X161666666Y-113535714D01*
X161714285Y-113630952D01*
X161761904Y-113678571D01*
X161857142Y-113726190D01*
X162238095Y-113726190D01*
X161333333Y-113202381D02*
X160714285Y-113202381D01*
X161047619Y-113583333D01*
X160904761Y-113583333D01*
X160809523Y-113630952D01*
X160761904Y-113678571D01*
X160714285Y-113773810D01*
X160714285Y-114011905D01*
X160761904Y-114107143D01*
X160809523Y-114154762D01*
X160904761Y-114202381D01*
X161190476Y-114202381D01*
X161285714Y-114154762D01*
X161333333Y-114107143D01*
%LPC*%
X166623000Y-115611000D02*
X166877000Y-115611000D01*
X166623000Y-117389000D02*
X166877000Y-117389000D01*
X166750000Y-115611000D02*
X166750000Y-117389000D01*
X167639000Y-116182500D02*
X167639000Y-116881000D01*
X167385000Y-117198500D02*
X167385000Y-115801500D01*
X167258000Y-115738000D02*
X167258000Y-117262000D01*
X167131000Y-117325500D02*
X167131000Y-115674500D01*
X167004000Y-115674500D02*
X167004000Y-117325500D01*
X166877000Y-117389000D02*
X166877000Y-115611000D01*
X166877000Y-115611000D02*
G75*
G02X167766000Y-116500000I0J-889000D01*
G01*
X167766000Y-116500000D02*
G75*
G02X166877000Y-117389000I-889000J0D01*
G01*
X165861000Y-116881000D02*
X165861000Y-116119000D01*
X166115000Y-115801500D02*
X166115000Y-117198500D01*
X166242000Y-117262000D02*
X166242000Y-115738000D01*
X166369000Y-115674500D02*
X166369000Y-117325500D01*
X166496000Y-117325500D02*
X166496000Y-115674500D01*
X166623000Y-117389000D02*
X166623000Y-115611000D01*
X165734000Y-116500000D02*
G75*
G02X166623000Y-115611000I889000J0D01*
G01*
X166623000Y-117389000D02*
G75*
G02X165734000Y-116500000I0J889000D01*
G01*
D16*
X172600000Y-112250000D03*
X170400000Y-112250000D03*
D17*
X272905000Y-136500000D03*
X271635000Y-136500000D03*
X270365000Y-136500000D03*
X269095000Y-136500000D03*
X254405000Y-136500000D03*
X253135000Y-136500000D03*
X251865000Y-136500000D03*
X250595000Y-136500000D03*
X235905000Y-136500000D03*
X234635000Y-136500000D03*
X233365000Y-136500000D03*
X232095000Y-136500000D03*
X217405000Y-136500000D03*
X216135000Y-136500000D03*
X214865000Y-136500000D03*
X213595000Y-136500000D03*
X272905000Y-118000000D03*
X271635000Y-118000000D03*
X270365000Y-118000000D03*
X269095000Y-118000000D03*
X254405000Y-118000000D03*
X253135000Y-118000000D03*
X251865000Y-118000000D03*
X250595000Y-118000000D03*
X235905000Y-118000000D03*
X234635000Y-118000000D03*
X233365000Y-118000000D03*
X232095000Y-118000000D03*
X217405000Y-118000000D03*
X216135000Y-118000000D03*
X214865000Y-118000000D03*
X213595000Y-118000000D03*
X272905000Y-99500000D03*
X271635000Y-99500000D03*
X270365000Y-99500000D03*
X269095000Y-99500000D03*
X254405000Y-99500000D03*
X253135000Y-99500000D03*
X251865000Y-99500000D03*
X250595000Y-99500000D03*
X235905000Y-99500000D03*
X234635000Y-99500000D03*
X233365000Y-99500000D03*
X232095000Y-99500000D03*
X217405000Y-99500000D03*
X216135000Y-99500000D03*
X214865000Y-99500000D03*
X213595000Y-99500000D03*
X69655000Y-99500000D03*
X68385000Y-99500000D03*
X67115000Y-99500000D03*
X65845000Y-99500000D03*
X88155000Y-99500000D03*
X86885000Y-99500000D03*
X85615000Y-99500000D03*
X84345000Y-99500000D03*
X106655000Y-99500000D03*
X105385000Y-99500000D03*
X104115000Y-99500000D03*
X102845000Y-99500000D03*
X125155000Y-99500000D03*
X123885000Y-99500000D03*
X122615000Y-99500000D03*
X121345000Y-99500000D03*
X69655000Y-118000000D03*
X68385000Y-118000000D03*
X67115000Y-118000000D03*
X65845000Y-118000000D03*
X88155000Y-118000000D03*
X86885000Y-118000000D03*
X85615000Y-118000000D03*
X84345000Y-118000000D03*
X106655000Y-118000000D03*
X105385000Y-118000000D03*
X104115000Y-118000000D03*
X102845000Y-118000000D03*
X125155000Y-118000000D03*
X123885000Y-118000000D03*
X122615000Y-118000000D03*
X121345000Y-118000000D03*
X69655000Y-136500000D03*
X68385000Y-136500000D03*
X67115000Y-136500000D03*
X65845000Y-136500000D03*
X88155000Y-136500000D03*
X86885000Y-136500000D03*
X85615000Y-136500000D03*
X84345000Y-136500000D03*
X106655000Y-136500000D03*
X105385000Y-136500000D03*
X104115000Y-136500000D03*
X102845000Y-136500000D03*
X125155000Y-136500000D03*
X123885000Y-136500000D03*
X122615000Y-136500000D03*
X121345000Y-136500000D03*
D10*
G36*
X166650000Y-115850000D02*
X166650000Y-117150000D01*
X165850000Y-117050000D01*
X165850000Y-115950000D01*
X166650000Y-115850000D01*
X166650000Y-115850000D01*
G37*
G36*
X166850000Y-117150000D02*
X166850000Y-115850000D01*
X167650000Y-115950000D01*
X167650000Y-117050000D01*
X166850000Y-117150000D01*
X166850000Y-117150000D01*
G37*
D18*
X77000000Y-144500000D03*
X77000000Y-91500000D03*
X261750000Y-91500000D03*
X261750000Y-144500000D03*
X143250000Y-144500000D03*
X195250000Y-144500000D03*
X143250000Y-91500000D03*
X195250000Y-91500000D03*
D19*
X165800000Y-111500000D03*
X167700000Y-111500000D03*
X166750000Y-113500000D03*
D16*
X165650000Y-108750000D03*
X167850000Y-108750000D03*
X160400000Y-112250000D03*
X162600000Y-112250000D03*
D20*
X72550000Y-94900000D03*
X67750000Y-93100000D03*
X220300000Y-94900000D03*
X215500000Y-93100000D03*
X238800000Y-94900000D03*
X234000000Y-93100000D03*
X257300000Y-94900000D03*
X252500000Y-93100000D03*
X275800000Y-94900000D03*
X271000000Y-93100000D03*
X220300000Y-113400000D03*
X215500000Y-111600000D03*
X238800000Y-113400000D03*
X234000000Y-111600000D03*
X257300000Y-113400000D03*
X252500000Y-111600000D03*
X275800000Y-113400000D03*
X271000000Y-111600000D03*
X220300000Y-131900000D03*
X215500000Y-130100000D03*
X238800000Y-131900000D03*
X234000000Y-130100000D03*
X257300000Y-131900000D03*
X252500000Y-130100000D03*
X275800000Y-131900000D03*
X271000000Y-130100000D03*
X91050000Y-94900000D03*
X86250000Y-93100000D03*
X109550000Y-94900000D03*
X104750000Y-93100000D03*
X128050000Y-94900000D03*
X123250000Y-93100000D03*
X72550000Y-113400000D03*
X67750000Y-111600000D03*
X91050000Y-113400000D03*
X86250000Y-111600000D03*
X109550000Y-113400000D03*
X104750000Y-111600000D03*
X128050000Y-113400000D03*
X123250000Y-111600000D03*
X72550000Y-131900000D03*
X67750000Y-130100000D03*
X91050000Y-131900000D03*
X86250000Y-130100000D03*
X109550000Y-131900000D03*
X104750000Y-130100000D03*
X128050000Y-131900000D03*
X123250000Y-130100000D03*
M02*
