M48
;DRILL file {KiCad 4.0.7} date 09/25/20 21:30:31
;FORMAT={-:-/ absolute / metric / decimal}
FMAT,2
METRIC,TZ
T1C0.200
T2C0.300
T3C0.700
T4C1.000
T5C2.000
%
G90
G05
M71
T1
X175.75Y-97.
X179.25Y-96.
T2
X125.Y-103.
X145.Y-107.25
X145.12Y-98.12
X150.25Y-97.8
X155.25Y-107.8
X160.35Y-97.8
X165.5Y-107.5
X167.75Y-107.5
X167.95Y-97.7
X175.55Y-107.8
X180.75Y-98.
X185.75Y-98.
X193.35Y-107.8
X210.25Y-103.5
X211.25Y-102.5
T3
X65.845Y-99.5
X65.845Y-118.
X65.845Y-136.5
X67.115Y-99.5
X67.115Y-118.
X67.115Y-136.5
X68.385Y-99.5
X68.385Y-118.
X68.385Y-136.5
X69.655Y-99.5
X69.655Y-118.
X69.655Y-136.5
X84.345Y-99.5
X84.345Y-118.
X84.345Y-136.5
X85.615Y-99.5
X85.615Y-118.
X85.615Y-136.5
X86.885Y-99.5
X86.885Y-118.
X86.885Y-136.5
X88.155Y-99.5
X88.155Y-118.
X88.155Y-136.5
X102.845Y-99.5
X102.845Y-118.
X102.845Y-136.5
X104.115Y-99.5
X104.115Y-118.
X104.115Y-136.5
X105.385Y-99.5
X105.385Y-118.
X105.385Y-136.5
X106.655Y-99.5
X106.655Y-118.
X106.655Y-136.5
X121.345Y-99.5
X121.345Y-118.
X121.345Y-136.5
X122.615Y-99.5
X122.615Y-118.
X122.615Y-136.5
X123.885Y-99.5
X123.885Y-118.
X123.885Y-136.5
X125.155Y-99.5
X125.155Y-118.
X125.155Y-136.5
X213.595Y-99.5
X213.595Y-118.
X213.595Y-136.5
X214.865Y-99.5
X214.865Y-118.
X214.865Y-136.5
X216.135Y-99.5
X216.135Y-118.
X216.135Y-136.5
X217.405Y-99.5
X217.405Y-118.
X217.405Y-136.5
X232.095Y-99.5
X232.095Y-118.
X232.095Y-136.5
X233.365Y-99.5
X233.365Y-118.
X233.365Y-136.5
X234.635Y-99.5
X234.635Y-118.
X234.635Y-136.5
X235.905Y-99.5
X235.905Y-118.
X235.905Y-136.5
X250.595Y-99.5
X250.595Y-118.
X250.595Y-136.5
X251.865Y-99.5
X251.865Y-118.
X251.865Y-136.5
X253.135Y-99.5
X253.135Y-118.
X253.135Y-136.5
X254.405Y-99.5
X254.405Y-118.
X254.405Y-136.5
X269.095Y-99.5
X269.095Y-118.
X269.095Y-136.5
X270.365Y-99.5
X270.365Y-118.
X270.365Y-136.5
X271.635Y-99.5
X271.635Y-118.
X271.635Y-136.5
X272.905Y-99.5
X272.905Y-118.
X272.905Y-136.5
T4
X67.75Y-93.1
X67.75Y-111.6
X67.75Y-130.1
X72.55Y-94.9
X72.55Y-113.4
X72.55Y-131.9
X86.25Y-93.1
X86.25Y-111.6
X86.25Y-130.1
X91.05Y-94.9
X91.05Y-113.4
X91.05Y-131.9
X104.75Y-93.1
X104.75Y-111.6
X104.75Y-130.1
X109.55Y-94.9
X109.55Y-113.4
X109.55Y-131.9
X123.25Y-93.1
X123.25Y-111.6
X123.25Y-130.1
X128.05Y-94.9
X128.05Y-113.4
X128.05Y-131.9
X215.5Y-93.1
X215.5Y-111.6
X215.5Y-130.1
X220.3Y-94.9
X220.3Y-113.4
X220.3Y-131.9
X234.Y-93.1
X234.Y-111.6
X234.Y-130.1
X238.8Y-94.9
X238.8Y-113.4
X238.8Y-131.9
X252.5Y-93.1
X252.5Y-111.6
X252.5Y-130.1
X257.3Y-94.9
X257.3Y-113.4
X257.3Y-131.9
X271.Y-93.1
X271.Y-111.6
X271.Y-130.1
X275.8Y-94.9
X275.8Y-113.4
X275.8Y-131.9
T5
X77.Y-91.5
X77.Y-144.5
X143.25Y-91.5
X143.25Y-144.5
X195.25Y-91.5
X195.25Y-144.5
X261.75Y-91.5
X261.75Y-144.5
T0
M30
