G04 #@! TF.FileFunction,Profile,NP*
%FSLAX46Y46*%
G04 Gerber Fmt 4.6, Leading zero omitted, Abs format (unit mm)*
G04 Created by KiCad (PCBNEW 4.0.7) date 09/25/20 21:30:28*
%MOMM*%
%LPD*%
G01*
G04 APERTURE LIST*
%ADD10C,0.200000*%
%ADD11C,0.100000*%
G04 APERTURE END LIST*
D10*
D11*
X59750000Y-89500000D02*
X62500000Y-89500000D01*
X59750000Y-146500000D02*
X62500000Y-146500000D01*
X279000000Y-146500000D02*
X275250000Y-146500000D01*
X279000000Y-89500000D02*
X205250000Y-89500000D01*
X206750000Y-120500000D02*
X206750000Y-130500000D01*
X206250000Y-131000000D02*
G75*
G03X206750000Y-130500000I0J500000D01*
G01*
X205750000Y-130500000D02*
G75*
G03X206250000Y-131000000I500000J0D01*
G01*
X206750000Y-120500000D02*
G75*
G03X206250000Y-120000000I-500000J0D01*
G01*
X206250000Y-120000000D02*
G75*
G03X205750000Y-120500000I0J-500000D01*
G01*
X206750000Y-105500000D02*
X206750000Y-115500000D01*
X206250000Y-116000000D02*
G75*
G03X206750000Y-115500000I0J500000D01*
G01*
X205750000Y-115500000D02*
G75*
G03X206250000Y-116000000I500000J0D01*
G01*
X206750000Y-105500000D02*
G75*
G03X206250000Y-105000000I-500000J0D01*
G01*
X206250000Y-105000000D02*
G75*
G03X205750000Y-105500000I0J-500000D01*
G01*
X205750000Y-115500000D02*
X205750000Y-105500000D01*
X205750000Y-130500000D02*
X205750000Y-120500000D01*
X205750000Y-101500000D02*
G75*
G03X206250000Y-102000000I500000J0D01*
G01*
X206250000Y-102000000D02*
G75*
G03X206750000Y-101500000I0J500000D01*
G01*
X205750000Y-91500000D02*
X205750000Y-101500000D01*
X206750000Y-91500000D02*
G75*
G03X206250000Y-91000000I-500000J0D01*
G01*
X206250000Y-91000000D02*
G75*
G03X205750000Y-91500000I0J-500000D01*
G01*
X206750000Y-101500000D02*
X206750000Y-91500000D01*
X206750000Y-134500000D02*
G75*
G03X206250000Y-134000000I-500000J0D01*
G01*
X206250000Y-134000000D02*
G75*
G03X205750000Y-134500000I0J-500000D01*
G01*
X206250000Y-145000000D02*
G75*
G03X206750000Y-144500000I0J500000D01*
G01*
X205750000Y-144500000D02*
G75*
G03X206250000Y-145000000I500000J0D01*
G01*
X206750000Y-144500000D02*
X206750000Y-144000000D01*
X206750000Y-134500000D02*
X206750000Y-144000000D01*
X205750000Y-144500000D02*
X205750000Y-134500000D01*
X62500000Y-146500000D02*
X63500000Y-146500000D01*
X63500000Y-89500000D02*
X62500000Y-89500000D01*
X63500000Y-146500000D02*
X133250000Y-146500000D01*
X57750000Y-91500000D02*
X57750000Y-144500000D01*
X63500000Y-89500000D02*
X133250000Y-89500000D01*
X59750000Y-89500000D02*
G75*
G03X57750000Y-91500000I0J-2000000D01*
G01*
X57750000Y-144500000D02*
G75*
G03X59750000Y-146500000I2000000J0D01*
G01*
X205250000Y-89500000D02*
X133250000Y-89500000D01*
X281000000Y-91500000D02*
X281000000Y-144500000D01*
X275250000Y-146500000D02*
X133250000Y-146500000D01*
X281000000Y-91500000D02*
G75*
G03X279000000Y-89500000I-2000000J0D01*
G01*
X279000000Y-146500000D02*
G75*
G03X281000000Y-144500000I0J2000000D01*
G01*
X134916666Y-146500000D02*
G75*
G03X134916666Y-146500000I-1666666J0D01*
G01*
X130750000Y-146500000D02*
X135750000Y-146500000D01*
X133250000Y-144000000D02*
X133250000Y-149000000D01*
M02*
