G04 #@! TF.FileFunction,Paste,Top*
%FSLAX46Y46*%
G04 Gerber Fmt 4.6, Leading zero omitted, Abs format (unit mm)*
G04 Created by KiCad (PCBNEW 4.0.7) date 09/25/20 21:30:28*
%MOMM*%
%LPD*%
G01*
G04 APERTURE LIST*
%ADD10C,0.200000*%
%ADD11R,1.000000X3.150000*%
G04 APERTURE END LIST*
D10*
D11*
X145120000Y-105275000D03*
X145120000Y-100225000D03*
X147660000Y-105275000D03*
X147660000Y-100225000D03*
X150200000Y-105275000D03*
X150200000Y-100225000D03*
X152740000Y-105275000D03*
X152740000Y-100225000D03*
X155280000Y-105275000D03*
X155280000Y-100225000D03*
X157820000Y-105275000D03*
X157820000Y-100225000D03*
X160360000Y-105275000D03*
X160360000Y-100225000D03*
X162900000Y-105275000D03*
X162900000Y-100225000D03*
X165440000Y-105275000D03*
X165440000Y-100225000D03*
X167980000Y-105275000D03*
X167980000Y-100225000D03*
X170520000Y-105275000D03*
X170520000Y-100225000D03*
X173060000Y-105275000D03*
X173060000Y-100225000D03*
X175600000Y-105275000D03*
X175600000Y-100225000D03*
X178140000Y-105275000D03*
X178140000Y-100225000D03*
X180680000Y-105275000D03*
X180680000Y-100225000D03*
X183220000Y-105275000D03*
X183220000Y-100225000D03*
X185760000Y-105275000D03*
X185760000Y-100225000D03*
X188300000Y-105275000D03*
X188300000Y-100225000D03*
X190840000Y-105275000D03*
X190840000Y-100225000D03*
X193380000Y-105275000D03*
X193380000Y-100225000D03*
M02*
